<mxfile host="app.diagrams.net" agent="Mozilla/5.0 (Windows NT 10.0; Win64; x64; rv:143.0) Gecko/20100101 Firefox/143.0" version="28.2.3">
  <diagram id="C5RBs43oDa-KdzZeNtuy" name="Page-1">
    <mxGraphModel dx="983" dy="3518" grid="1" gridSize="10" guides="1" tooltips="1" connect="1" arrows="1" fold="1" page="1" pageScale="1" pageWidth="3000" pageHeight="3000" math="0" shadow="0">
      <root>
        <mxCell id="WIyWlLk6GJQsqaUBKTNV-0" />
        <mxCell id="WIyWlLk6GJQsqaUBKTNV-1" parent="WIyWlLk6GJQsqaUBKTNV-0" />
        <mxCell id="_60zvl8MqvEbd_1B-xa8-128" value="" style="rounded=0;whiteSpace=wrap;html=1;" vertex="1" parent="WIyWlLk6GJQsqaUBKTNV-1">
          <mxGeometry x="292" y="432" width="126" height="94" as="geometry" />
        </mxCell>
        <mxCell id="WIyWlLk6GJQsqaUBKTNV-3" value="Usuário (login)" style="rounded=1;whiteSpace=wrap;html=1;fontSize=12;glass=0;strokeWidth=1;shadow=0;" parent="WIyWlLk6GJQsqaUBKTNV-1" vertex="1">
          <mxGeometry x="519" y="278.25" width="120" height="60" as="geometry" />
        </mxCell>
        <mxCell id="x7gLVJV_eMdsytJDkSwZ-5" value="" style="group" parent="WIyWlLk6GJQsqaUBKTNV-1" vertex="1" connectable="0">
          <mxGeometry x="528" y="185.25" width="60" height="28.5" as="geometry" />
        </mxCell>
        <mxCell id="x7gLVJV_eMdsytJDkSwZ-1" value="" style="endArrow=none;html=1;rounded=0;" parent="x7gLVJV_eMdsytJDkSwZ-5" edge="1">
          <mxGeometry width="50" height="50" relative="1" as="geometry">
            <mxPoint y="13.5" as="sourcePoint" />
            <mxPoint x="20" y="13.5" as="targetPoint" />
          </mxGeometry>
        </mxCell>
        <mxCell id="x7gLVJV_eMdsytJDkSwZ-2" value="" style="ellipse;whiteSpace=wrap;html=1;strokeWidth=1;fillStyle=auto;" parent="x7gLVJV_eMdsytJDkSwZ-5" vertex="1">
          <mxGeometry x="15" y="8.5" width="11" height="10" as="geometry" />
        </mxCell>
        <mxCell id="x7gLVJV_eMdsytJDkSwZ-4" value="Nome" style="text;html=1;align=center;verticalAlign=middle;whiteSpace=wrap;rounded=0;fontSize=9;" parent="x7gLVJV_eMdsytJDkSwZ-5" vertex="1">
          <mxGeometry x="20" width="40" height="25" as="geometry" />
        </mxCell>
        <mxCell id="x7gLVJV_eMdsytJDkSwZ-0" value="" style="endArrow=none;html=1;rounded=0;" parent="WIyWlLk6GJQsqaUBKTNV-1" edge="1">
          <mxGeometry width="50" height="50" relative="1" as="geometry">
            <mxPoint x="528" y="278.25" as="sourcePoint" />
            <mxPoint x="528" y="198.25" as="targetPoint" />
          </mxGeometry>
        </mxCell>
        <mxCell id="x7gLVJV_eMdsytJDkSwZ-7" value="" style="group" parent="WIyWlLk6GJQsqaUBKTNV-1" vertex="1" connectable="0">
          <mxGeometry x="565" y="234.75" width="60" height="43.5" as="geometry" />
        </mxCell>
        <mxCell id="x7gLVJV_eMdsytJDkSwZ-8" value="" style="endArrow=none;html=1;rounded=0;" parent="x7gLVJV_eMdsytJDkSwZ-7" edge="1">
          <mxGeometry width="50" height="50" relative="1" as="geometry">
            <mxPoint x="-27" y="43" as="sourcePoint" />
            <mxPoint x="-27" y="-23" as="targetPoint" />
          </mxGeometry>
        </mxCell>
        <mxCell id="x7gLVJV_eMdsytJDkSwZ-18" value="Email" style="text;html=1;align=center;verticalAlign=middle;whiteSpace=wrap;rounded=0;fontSize=9;" parent="x7gLVJV_eMdsytJDkSwZ-7" vertex="1">
          <mxGeometry x="-10" y="-34.5" width="40" height="25" as="geometry" />
        </mxCell>
        <mxCell id="x7gLVJV_eMdsytJDkSwZ-27" value="" style="ellipse;whiteSpace=wrap;html=1;strokeWidth=1;fillStyle=auto;" parent="x7gLVJV_eMdsytJDkSwZ-7" vertex="1">
          <mxGeometry x="-7" y="-14" width="11" height="10" as="geometry" />
        </mxCell>
        <mxCell id="x7gLVJV_eMdsytJDkSwZ-28" value="Senha" style="text;html=1;align=center;verticalAlign=middle;whiteSpace=wrap;rounded=0;fontSize=9;" parent="x7gLVJV_eMdsytJDkSwZ-7" vertex="1">
          <mxGeometry x="-1" y="-21.5" width="40" height="25" as="geometry" />
        </mxCell>
        <mxCell id="x7gLVJV_eMdsytJDkSwZ-42" value="" style="endArrow=none;html=1;rounded=0;" parent="x7gLVJV_eMdsytJDkSwZ-7" edge="1">
          <mxGeometry width="50" height="50" relative="1" as="geometry">
            <mxPoint y="43.5" as="sourcePoint" />
            <mxPoint y="17" as="targetPoint" />
          </mxGeometry>
        </mxCell>
        <mxCell id="x7gLVJV_eMdsytJDkSwZ-16" value="" style="endArrow=none;html=1;rounded=0;entryX=0;entryY=0.5;entryDx=0;entryDy=0;" parent="WIyWlLk6GJQsqaUBKTNV-1" edge="1">
          <mxGeometry width="50" height="50" relative="1" as="geometry">
            <mxPoint x="538" y="212.25" as="sourcePoint" />
            <mxPoint x="550.9999999999977" y="212.25" as="targetPoint" />
          </mxGeometry>
        </mxCell>
        <mxCell id="x7gLVJV_eMdsytJDkSwZ-24" value="" style="endArrow=none;html=1;rounded=0;" parent="WIyWlLk6GJQsqaUBKTNV-1" edge="1">
          <mxGeometry width="50" height="50" relative="1" as="geometry">
            <mxPoint x="545" y="278.25" as="sourcePoint" />
            <mxPoint x="545" y="225.25" as="targetPoint" />
          </mxGeometry>
        </mxCell>
        <mxCell id="x7gLVJV_eMdsytJDkSwZ-26" value="" style="endArrow=none;html=1;rounded=0;" parent="WIyWlLk6GJQsqaUBKTNV-1" edge="1">
          <mxGeometry width="50" height="50" relative="1" as="geometry">
            <mxPoint x="544.5" y="225.25" as="sourcePoint" />
            <mxPoint x="558" y="225.25" as="targetPoint" />
          </mxGeometry>
        </mxCell>
        <mxCell id="x7gLVJV_eMdsytJDkSwZ-33" value="" style="group" parent="WIyWlLk6GJQsqaUBKTNV-1" vertex="1" connectable="0">
          <mxGeometry x="445" y="228.25" width="163.5" height="50" as="geometry" />
        </mxCell>
        <mxCell id="x7gLVJV_eMdsytJDkSwZ-29" value="" style="ellipse;whiteSpace=wrap;html=1;strokeWidth=1;fillStyle=auto;" parent="x7gLVJV_eMdsytJDkSwZ-33" vertex="1">
          <mxGeometry x="119.8" y="6" width="10" height="10" as="geometry" />
        </mxCell>
        <mxCell id="x7gLVJV_eMdsytJDkSwZ-30" value="Telefone" style="text;html=1;align=center;verticalAlign=middle;whiteSpace=wrap;rounded=0;fontSize=9;" parent="x7gLVJV_eMdsytJDkSwZ-33" vertex="1">
          <mxGeometry x="135.41778332954803" y="3" width="26.08221667045197" height="15.306122448979592" as="geometry" />
        </mxCell>
        <mxCell id="x7gLVJV_eMdsytJDkSwZ-31" value="" style="endArrow=none;html=1;rounded=0;" parent="x7gLVJV_eMdsytJDkSwZ-33" edge="1">
          <mxGeometry width="50" height="50" relative="1" as="geometry">
            <mxPoint x="111.32602770838065" y="50" as="sourcePoint" />
            <mxPoint x="111.5" y="10" as="targetPoint" />
          </mxGeometry>
        </mxCell>
        <mxCell id="x7gLVJV_eMdsytJDkSwZ-32" value="" style="endArrow=none;html=1;rounded=0;" parent="x7gLVJV_eMdsytJDkSwZ-33" edge="1">
          <mxGeometry width="50" height="50" relative="1" as="geometry">
            <mxPoint x="111" y="10.57142857142857" as="sourcePoint" />
            <mxPoint x="119.80274812627754" y="10.57142857142857" as="targetPoint" />
          </mxGeometry>
        </mxCell>
        <mxCell id="x7gLVJV_eMdsytJDkSwZ-17" value="" style="ellipse;whiteSpace=wrap;html=1;strokeWidth=1;fillStyle=auto;" parent="WIyWlLk6GJQsqaUBKTNV-1" vertex="1">
          <mxGeometry x="550.5" y="207.75" width="11" height="10" as="geometry" />
        </mxCell>
        <mxCell id="x7gLVJV_eMdsytJDkSwZ-47" value="" style="endArrow=none;html=1;rounded=0;" parent="WIyWlLk6GJQsqaUBKTNV-1" edge="1">
          <mxGeometry width="50" height="50" relative="1" as="geometry">
            <mxPoint x="565" y="252.25" as="sourcePoint" />
            <mxPoint x="573.8027481262775" y="252.25" as="targetPoint" />
          </mxGeometry>
        </mxCell>
        <mxCell id="x7gLVJV_eMdsytJDkSwZ-48" value="" style="ellipse;whiteSpace=wrap;html=1;strokeWidth=1;fillStyle=auto;fillColor=#000000;strokeColor=#000000;" parent="WIyWlLk6GJQsqaUBKTNV-1" vertex="1">
          <mxGeometry x="574" y="247.25" width="10" height="10" as="geometry" />
        </mxCell>
        <mxCell id="x7gLVJV_eMdsytJDkSwZ-49" value="ID_usuario" style="text;html=1;align=center;verticalAlign=middle;whiteSpace=wrap;rounded=0;fontSize=9;fontStyle=4" parent="WIyWlLk6GJQsqaUBKTNV-1" vertex="1">
          <mxGeometry x="595" y="244.25" width="26.08221667045197" height="15.306122448979592" as="geometry" />
        </mxCell>
        <mxCell id="x7gLVJV_eMdsytJDkSwZ-50" value="" style="endArrow=none;html=1;rounded=0;" parent="WIyWlLk6GJQsqaUBKTNV-1" edge="1">
          <mxGeometry width="50" height="50" relative="1" as="geometry">
            <mxPoint x="435" y="308.25" as="sourcePoint" />
            <mxPoint x="519" y="308.05" as="targetPoint" />
          </mxGeometry>
        </mxCell>
        <mxCell id="x7gLVJV_eMdsytJDkSwZ-52" value="" style="endArrow=none;html=1;rounded=0;" parent="WIyWlLk6GJQsqaUBKTNV-1" edge="1">
          <mxGeometry width="50" height="50" relative="1" as="geometry">
            <mxPoint x="639" y="308.25" as="sourcePoint" />
            <mxPoint x="725" y="308.25" as="targetPoint" />
          </mxGeometry>
        </mxCell>
        <mxCell id="x7gLVJV_eMdsytJDkSwZ-53" value="É uma" style="rhombus;whiteSpace=wrap;html=1;" parent="WIyWlLk6GJQsqaUBKTNV-1" vertex="1">
          <mxGeometry x="315" y="268.25" width="120" height="80" as="geometry" />
        </mxCell>
        <mxCell id="x7gLVJV_eMdsytJDkSwZ-54" value="É uma" style="rhombus;whiteSpace=wrap;html=1;" parent="WIyWlLk6GJQsqaUBKTNV-1" vertex="1">
          <mxGeometry x="725" y="268.25" width="120" height="80" as="geometry" />
        </mxCell>
        <mxCell id="l0ReFOTLny2DY5NW7kPO-0" value="" style="endArrow=none;html=1;rounded=0;" parent="WIyWlLk6GJQsqaUBKTNV-1" edge="1">
          <mxGeometry width="50" height="50" relative="1" as="geometry">
            <mxPoint x="231" y="307.95" as="sourcePoint" />
            <mxPoint x="315" y="307.75" as="targetPoint" />
          </mxGeometry>
        </mxCell>
        <mxCell id="l0ReFOTLny2DY5NW7kPO-1" value="" style="endArrow=none;html=1;rounded=0;" parent="WIyWlLk6GJQsqaUBKTNV-1" edge="1">
          <mxGeometry width="50" height="50" relative="1" as="geometry">
            <mxPoint x="845" y="307.95" as="sourcePoint" />
            <mxPoint x="929" y="307.75" as="targetPoint" />
          </mxGeometry>
        </mxCell>
        <mxCell id="l0ReFOTLny2DY5NW7kPO-2" value="Empresa" style="rounded=1;whiteSpace=wrap;html=1;fontSize=12;glass=0;strokeWidth=1;shadow=0;" parent="WIyWlLk6GJQsqaUBKTNV-1" vertex="1">
          <mxGeometry x="110" y="278.25" width="120" height="60" as="geometry" />
        </mxCell>
        <mxCell id="l0ReFOTLny2DY5NW7kPO-3" value="" style="group" parent="WIyWlLk6GJQsqaUBKTNV-1" vertex="1" connectable="0">
          <mxGeometry x="119" y="185.25" width="60" height="28.5" as="geometry" />
        </mxCell>
        <mxCell id="l0ReFOTLny2DY5NW7kPO-4" value="" style="endArrow=none;html=1;rounded=0;" parent="l0ReFOTLny2DY5NW7kPO-3" edge="1">
          <mxGeometry width="50" height="50" relative="1" as="geometry">
            <mxPoint y="13.5" as="sourcePoint" />
            <mxPoint x="20" y="13.5" as="targetPoint" />
          </mxGeometry>
        </mxCell>
        <mxCell id="l0ReFOTLny2DY5NW7kPO-5" value="" style="ellipse;whiteSpace=wrap;html=1;strokeWidth=1;fillStyle=auto;" parent="l0ReFOTLny2DY5NW7kPO-3" vertex="1">
          <mxGeometry x="15" y="8.5" width="11" height="10" as="geometry" />
        </mxCell>
        <mxCell id="l0ReFOTLny2DY5NW7kPO-6" value="CNPJ" style="text;html=1;align=center;verticalAlign=middle;whiteSpace=wrap;rounded=0;fontSize=9;" parent="l0ReFOTLny2DY5NW7kPO-3" vertex="1">
          <mxGeometry x="20" width="40" height="25" as="geometry" />
        </mxCell>
        <mxCell id="l0ReFOTLny2DY5NW7kPO-7" value="" style="endArrow=none;html=1;rounded=0;" parent="WIyWlLk6GJQsqaUBKTNV-1" edge="1">
          <mxGeometry width="50" height="50" relative="1" as="geometry">
            <mxPoint x="119" y="278.25" as="sourcePoint" />
            <mxPoint x="119" y="198.25" as="targetPoint" />
          </mxGeometry>
        </mxCell>
        <mxCell id="l0ReFOTLny2DY5NW7kPO-8" value="" style="group" parent="WIyWlLk6GJQsqaUBKTNV-1" vertex="1" connectable="0">
          <mxGeometry x="156" y="234.75" width="60" height="43.5" as="geometry" />
        </mxCell>
        <mxCell id="l0ReFOTLny2DY5NW7kPO-9" value="" style="endArrow=none;html=1;rounded=0;" parent="l0ReFOTLny2DY5NW7kPO-8" edge="1">
          <mxGeometry width="50" height="50" relative="1" as="geometry">
            <mxPoint x="-27" y="43" as="sourcePoint" />
            <mxPoint x="-27" y="-23" as="targetPoint" />
          </mxGeometry>
        </mxCell>
        <mxCell id="l0ReFOTLny2DY5NW7kPO-10" value="razao_social" style="text;html=1;align=center;verticalAlign=middle;whiteSpace=wrap;rounded=0;fontSize=9;" parent="l0ReFOTLny2DY5NW7kPO-8" vertex="1">
          <mxGeometry x="-10" y="-34.5" width="70" height="25" as="geometry" />
        </mxCell>
        <mxCell id="l0ReFOTLny2DY5NW7kPO-11" value="" style="ellipse;whiteSpace=wrap;html=1;strokeWidth=1;fillStyle=auto;" parent="l0ReFOTLny2DY5NW7kPO-8" vertex="1">
          <mxGeometry x="-7" y="-14" width="11" height="10" as="geometry" />
        </mxCell>
        <mxCell id="l0ReFOTLny2DY5NW7kPO-12" value="inscricao_estadual" style="text;html=1;align=center;verticalAlign=middle;whiteSpace=wrap;rounded=0;fontSize=9;" parent="l0ReFOTLny2DY5NW7kPO-8" vertex="1">
          <mxGeometry x="23" y="-22.5" width="40" height="25" as="geometry" />
        </mxCell>
        <mxCell id="l0ReFOTLny2DY5NW7kPO-13" value="" style="endArrow=none;html=1;rounded=0;" parent="l0ReFOTLny2DY5NW7kPO-8" edge="1">
          <mxGeometry width="50" height="50" relative="1" as="geometry">
            <mxPoint y="43.5" as="sourcePoint" />
            <mxPoint y="17" as="targetPoint" />
          </mxGeometry>
        </mxCell>
        <mxCell id="l0ReFOTLny2DY5NW7kPO-14" value="" style="endArrow=none;html=1;rounded=0;entryX=0;entryY=0.5;entryDx=0;entryDy=0;" parent="WIyWlLk6GJQsqaUBKTNV-1" edge="1">
          <mxGeometry width="50" height="50" relative="1" as="geometry">
            <mxPoint x="129" y="212.25" as="sourcePoint" />
            <mxPoint x="141.99999999999773" y="212.25" as="targetPoint" />
          </mxGeometry>
        </mxCell>
        <mxCell id="l0ReFOTLny2DY5NW7kPO-15" value="" style="endArrow=none;html=1;rounded=0;" parent="WIyWlLk6GJQsqaUBKTNV-1" edge="1">
          <mxGeometry width="50" height="50" relative="1" as="geometry">
            <mxPoint x="136" y="278.25" as="sourcePoint" />
            <mxPoint x="136" y="225.25" as="targetPoint" />
          </mxGeometry>
        </mxCell>
        <mxCell id="l0ReFOTLny2DY5NW7kPO-16" value="" style="endArrow=none;html=1;rounded=0;" parent="WIyWlLk6GJQsqaUBKTNV-1" edge="1">
          <mxGeometry width="50" height="50" relative="1" as="geometry">
            <mxPoint x="135.5" y="225.25" as="sourcePoint" />
            <mxPoint x="149" y="225.25" as="targetPoint" />
          </mxGeometry>
        </mxCell>
        <mxCell id="l0ReFOTLny2DY5NW7kPO-17" value="" style="ellipse;whiteSpace=wrap;html=1;strokeWidth=1;fillStyle=auto;" parent="WIyWlLk6GJQsqaUBKTNV-1" vertex="1">
          <mxGeometry x="155.79999999999995" y="234.25" width="10" height="10" as="geometry" />
        </mxCell>
        <mxCell id="l0ReFOTLny2DY5NW7kPO-18" value="Plano (assinatura)" style="text;html=1;align=center;verticalAlign=middle;whiteSpace=wrap;rounded=0;fontSize=9;" parent="WIyWlLk6GJQsqaUBKTNV-1" vertex="1">
          <mxGeometry x="166.42" y="231.25" width="78.58" height="15.31" as="geometry" />
        </mxCell>
        <mxCell id="l0ReFOTLny2DY5NW7kPO-19" value="" style="endArrow=none;html=1;rounded=0;" parent="WIyWlLk6GJQsqaUBKTNV-1" edge="1">
          <mxGeometry width="50" height="50" relative="1" as="geometry">
            <mxPoint x="147.3260277083807" y="278.25" as="sourcePoint" />
            <mxPoint x="147.5" y="238.25" as="targetPoint" />
          </mxGeometry>
        </mxCell>
        <mxCell id="l0ReFOTLny2DY5NW7kPO-20" value="" style="endArrow=none;html=1;rounded=0;" parent="WIyWlLk6GJQsqaUBKTNV-1" edge="1">
          <mxGeometry width="50" height="50" relative="1" as="geometry">
            <mxPoint x="147" y="238.82142857142856" as="sourcePoint" />
            <mxPoint x="155.8027481262775" y="238.82142857142856" as="targetPoint" />
          </mxGeometry>
        </mxCell>
        <mxCell id="l0ReFOTLny2DY5NW7kPO-21" value="" style="ellipse;whiteSpace=wrap;html=1;strokeWidth=1;fillStyle=auto;" parent="WIyWlLk6GJQsqaUBKTNV-1" vertex="1">
          <mxGeometry x="141.5" y="207.75" width="11" height="10" as="geometry" />
        </mxCell>
        <mxCell id="l0ReFOTLny2DY5NW7kPO-22" value="" style="endArrow=none;html=1;rounded=0;" parent="WIyWlLk6GJQsqaUBKTNV-1" edge="1">
          <mxGeometry width="50" height="50" relative="1" as="geometry">
            <mxPoint x="156" y="252.25" as="sourcePoint" />
            <mxPoint x="164.8027481262775" y="252.25" as="targetPoint" />
          </mxGeometry>
        </mxCell>
        <mxCell id="l0ReFOTLny2DY5NW7kPO-23" value="" style="ellipse;whiteSpace=wrap;html=1;strokeWidth=1;fillStyle=auto;fillColor=#000000;strokeColor=#000000;" parent="WIyWlLk6GJQsqaUBKTNV-1" vertex="1">
          <mxGeometry x="165" y="247.25" width="10" height="10" as="geometry" />
        </mxCell>
        <mxCell id="l0ReFOTLny2DY5NW7kPO-24" value="ID_empresa" style="text;html=1;align=center;verticalAlign=middle;whiteSpace=wrap;rounded=0;fontSize=9;fontStyle=4" parent="WIyWlLk6GJQsqaUBKTNV-1" vertex="1">
          <mxGeometry x="189" y="244.25" width="26.08221667045197" height="15.306122448979592" as="geometry" />
        </mxCell>
        <mxCell id="l0ReFOTLny2DY5NW7kPO-25" value="Pessoa" style="rounded=1;whiteSpace=wrap;html=1;fontSize=12;glass=0;strokeWidth=1;shadow=0;" parent="WIyWlLk6GJQsqaUBKTNV-1" vertex="1">
          <mxGeometry x="930" y="273" width="120" height="60" as="geometry" />
        </mxCell>
        <mxCell id="l0ReFOTLny2DY5NW7kPO-26" value="" style="group" parent="WIyWlLk6GJQsqaUBKTNV-1" vertex="1" connectable="0">
          <mxGeometry x="939" y="180" width="60" height="28.5" as="geometry" />
        </mxCell>
        <mxCell id="l0ReFOTLny2DY5NW7kPO-27" value="" style="endArrow=none;html=1;rounded=0;" parent="l0ReFOTLny2DY5NW7kPO-26" edge="1">
          <mxGeometry width="50" height="50" relative="1" as="geometry">
            <mxPoint y="13.5" as="sourcePoint" />
            <mxPoint x="20" y="13.5" as="targetPoint" />
          </mxGeometry>
        </mxCell>
        <mxCell id="l0ReFOTLny2DY5NW7kPO-28" value="" style="ellipse;whiteSpace=wrap;html=1;strokeWidth=1;fillStyle=auto;" parent="l0ReFOTLny2DY5NW7kPO-26" vertex="1">
          <mxGeometry x="15" y="8.5" width="11" height="10" as="geometry" />
        </mxCell>
        <mxCell id="l0ReFOTLny2DY5NW7kPO-29" value="CPF" style="text;html=1;align=center;verticalAlign=middle;whiteSpace=wrap;rounded=0;fontSize=9;" parent="l0ReFOTLny2DY5NW7kPO-26" vertex="1">
          <mxGeometry x="18" y="1" width="40" height="25" as="geometry" />
        </mxCell>
        <mxCell id="l0ReFOTLny2DY5NW7kPO-30" value="" style="endArrow=none;html=1;rounded=0;" parent="WIyWlLk6GJQsqaUBKTNV-1" edge="1">
          <mxGeometry width="50" height="50" relative="1" as="geometry">
            <mxPoint x="939" y="273" as="sourcePoint" />
            <mxPoint x="939" y="193" as="targetPoint" />
          </mxGeometry>
        </mxCell>
        <mxCell id="l0ReFOTLny2DY5NW7kPO-31" value="" style="group" parent="WIyWlLk6GJQsqaUBKTNV-1" vertex="1" connectable="0">
          <mxGeometry x="976" y="229.5" width="60" height="43.5" as="geometry" />
        </mxCell>
        <mxCell id="l0ReFOTLny2DY5NW7kPO-32" value="" style="endArrow=none;html=1;rounded=0;" parent="l0ReFOTLny2DY5NW7kPO-31" edge="1">
          <mxGeometry width="50" height="50" relative="1" as="geometry">
            <mxPoint x="-27" y="43" as="sourcePoint" />
            <mxPoint x="-27" y="-23" as="targetPoint" />
          </mxGeometry>
        </mxCell>
        <mxCell id="l0ReFOTLny2DY5NW7kPO-33" value="Email" style="text;html=1;align=center;verticalAlign=middle;whiteSpace=wrap;rounded=0;fontSize=9;" parent="l0ReFOTLny2DY5NW7kPO-31" vertex="1">
          <mxGeometry x="-10" y="-34.5" width="40" height="25" as="geometry" />
        </mxCell>
        <mxCell id="l0ReFOTLny2DY5NW7kPO-34" value="" style="ellipse;whiteSpace=wrap;html=1;strokeWidth=1;fillStyle=auto;" parent="l0ReFOTLny2DY5NW7kPO-31" vertex="1">
          <mxGeometry x="-7" y="-14" width="11" height="10" as="geometry" />
        </mxCell>
        <mxCell id="l0ReFOTLny2DY5NW7kPO-35" value="data_nascimento" style="text;html=1;align=center;verticalAlign=middle;whiteSpace=wrap;rounded=0;fontSize=9;" parent="l0ReFOTLny2DY5NW7kPO-31" vertex="1">
          <mxGeometry x="20" y="-21.5" width="40" height="25" as="geometry" />
        </mxCell>
        <mxCell id="l0ReFOTLny2DY5NW7kPO-36" value="" style="endArrow=none;html=1;rounded=0;" parent="l0ReFOTLny2DY5NW7kPO-31" edge="1">
          <mxGeometry width="50" height="50" relative="1" as="geometry">
            <mxPoint y="43.5" as="sourcePoint" />
            <mxPoint y="17" as="targetPoint" />
          </mxGeometry>
        </mxCell>
        <mxCell id="l0ReFOTLny2DY5NW7kPO-37" value="" style="endArrow=none;html=1;rounded=0;entryX=0;entryY=0.5;entryDx=0;entryDy=0;" parent="WIyWlLk6GJQsqaUBKTNV-1" edge="1">
          <mxGeometry width="50" height="50" relative="1" as="geometry">
            <mxPoint x="949" y="207" as="sourcePoint" />
            <mxPoint x="961.9999999999977" y="207" as="targetPoint" />
          </mxGeometry>
        </mxCell>
        <mxCell id="l0ReFOTLny2DY5NW7kPO-38" value="" style="endArrow=none;html=1;rounded=0;" parent="WIyWlLk6GJQsqaUBKTNV-1" edge="1">
          <mxGeometry width="50" height="50" relative="1" as="geometry">
            <mxPoint x="956" y="273" as="sourcePoint" />
            <mxPoint x="956" y="220" as="targetPoint" />
          </mxGeometry>
        </mxCell>
        <mxCell id="l0ReFOTLny2DY5NW7kPO-39" value="" style="endArrow=none;html=1;rounded=0;" parent="WIyWlLk6GJQsqaUBKTNV-1" edge="1">
          <mxGeometry width="50" height="50" relative="1" as="geometry">
            <mxPoint x="955.5" y="220" as="sourcePoint" />
            <mxPoint x="969" y="220" as="targetPoint" />
          </mxGeometry>
        </mxCell>
        <mxCell id="l0ReFOTLny2DY5NW7kPO-40" value="" style="ellipse;whiteSpace=wrap;html=1;strokeWidth=1;fillStyle=auto;" parent="WIyWlLk6GJQsqaUBKTNV-1" vertex="1">
          <mxGeometry x="975.8" y="229" width="10" height="10" as="geometry" />
        </mxCell>
        <mxCell id="l0ReFOTLny2DY5NW7kPO-41" value="Telefone" style="text;html=1;align=center;verticalAlign=middle;whiteSpace=wrap;rounded=0;fontSize=9;" parent="WIyWlLk6GJQsqaUBKTNV-1" vertex="1">
          <mxGeometry x="991.417783329548" y="226" width="26.08221667045197" height="15.306122448979592" as="geometry" />
        </mxCell>
        <mxCell id="l0ReFOTLny2DY5NW7kPO-42" value="" style="endArrow=none;html=1;rounded=0;" parent="WIyWlLk6GJQsqaUBKTNV-1" edge="1">
          <mxGeometry width="50" height="50" relative="1" as="geometry">
            <mxPoint x="967.3260277083807" y="273" as="sourcePoint" />
            <mxPoint x="967.5" y="233" as="targetPoint" />
          </mxGeometry>
        </mxCell>
        <mxCell id="l0ReFOTLny2DY5NW7kPO-43" value="" style="endArrow=none;html=1;rounded=0;" parent="WIyWlLk6GJQsqaUBKTNV-1" edge="1">
          <mxGeometry width="50" height="50" relative="1" as="geometry">
            <mxPoint x="967" y="233.57142857142856" as="sourcePoint" />
            <mxPoint x="975.8027481262775" y="233.57142857142856" as="targetPoint" />
          </mxGeometry>
        </mxCell>
        <mxCell id="l0ReFOTLny2DY5NW7kPO-44" value="" style="ellipse;whiteSpace=wrap;html=1;strokeWidth=1;fillStyle=auto;" parent="WIyWlLk6GJQsqaUBKTNV-1" vertex="1">
          <mxGeometry x="961.5" y="202.5" width="11" height="10" as="geometry" />
        </mxCell>
        <mxCell id="l0ReFOTLny2DY5NW7kPO-45" value="" style="endArrow=none;html=1;rounded=0;" parent="WIyWlLk6GJQsqaUBKTNV-1" edge="1">
          <mxGeometry width="50" height="50" relative="1" as="geometry">
            <mxPoint x="976" y="247" as="sourcePoint" />
            <mxPoint x="984.8027481262775" y="247" as="targetPoint" />
          </mxGeometry>
        </mxCell>
        <mxCell id="l0ReFOTLny2DY5NW7kPO-46" value="" style="ellipse;whiteSpace=wrap;html=1;strokeWidth=1;fillStyle=auto;fillColor=#000000;strokeColor=#000000;" parent="WIyWlLk6GJQsqaUBKTNV-1" vertex="1">
          <mxGeometry x="985" y="242" width="10" height="10" as="geometry" />
        </mxCell>
        <mxCell id="l0ReFOTLny2DY5NW7kPO-47" value="ID_pessoa" style="text;html=1;align=center;verticalAlign=middle;whiteSpace=wrap;rounded=0;fontSize=9;strokeColor=none;shadow=0;fontStyle=4" parent="WIyWlLk6GJQsqaUBKTNV-1" vertex="1">
          <mxGeometry x="1006" y="239" width="26.08221667045197" height="15.306122448979592" as="geometry" />
        </mxCell>
        <mxCell id="l0ReFOTLny2DY5NW7kPO-48" value="" style="endArrow=none;html=1;rounded=0;" parent="WIyWlLk6GJQsqaUBKTNV-1" edge="1">
          <mxGeometry width="50" height="50" relative="1" as="geometry">
            <mxPoint x="171.42000000000002" y="338.25" as="sourcePoint" />
            <mxPoint x="171" y="408.25" as="targetPoint" />
          </mxGeometry>
        </mxCell>
        <mxCell id="l0ReFOTLny2DY5NW7kPO-49" value="Possui" style="rhombus;whiteSpace=wrap;html=1;" parent="WIyWlLk6GJQsqaUBKTNV-1" vertex="1">
          <mxGeometry x="110" y="408.25" width="120" height="80" as="geometry" />
        </mxCell>
        <mxCell id="l0ReFOTLny2DY5NW7kPO-50" value="" style="endArrow=none;html=1;rounded=0;" parent="WIyWlLk6GJQsqaUBKTNV-1" edge="1">
          <mxGeometry width="50" height="50" relative="1" as="geometry">
            <mxPoint x="170.00000000000003" y="488.25" as="sourcePoint" />
            <mxPoint x="169.58" y="558.25" as="targetPoint" />
          </mxGeometry>
        </mxCell>
        <mxCell id="l0ReFOTLny2DY5NW7kPO-51" value="Ponto de distribuição" style="rounded=1;whiteSpace=wrap;html=1;fontSize=12;glass=0;strokeWidth=1;shadow=0;" parent="WIyWlLk6GJQsqaUBKTNV-1" vertex="1">
          <mxGeometry x="110" y="558.25" width="120" height="60" as="geometry" />
        </mxCell>
        <mxCell id="l0ReFOTLny2DY5NW7kPO-52" value="1:1" style="text;html=1;align=center;verticalAlign=middle;whiteSpace=wrap;rounded=0;" parent="WIyWlLk6GJQsqaUBKTNV-1" vertex="1">
          <mxGeometry x="231" y="287" width="20" height="30" as="geometry" />
        </mxCell>
        <mxCell id="l0ReFOTLny2DY5NW7kPO-53" value="1:1" style="text;html=1;align=center;verticalAlign=middle;whiteSpace=wrap;rounded=0;" parent="WIyWlLk6GJQsqaUBKTNV-1" vertex="1">
          <mxGeometry x="500" y="287" width="20" height="30" as="geometry" />
        </mxCell>
        <mxCell id="l0ReFOTLny2DY5NW7kPO-54" value="1:1" style="text;html=1;align=center;verticalAlign=middle;whiteSpace=wrap;rounded=0;" parent="WIyWlLk6GJQsqaUBKTNV-1" vertex="1">
          <mxGeometry x="639" y="287" width="20" height="30" as="geometry" />
        </mxCell>
        <mxCell id="l0ReFOTLny2DY5NW7kPO-55" value="1:1" style="text;html=1;align=center;verticalAlign=middle;whiteSpace=wrap;rounded=0;" parent="WIyWlLk6GJQsqaUBKTNV-1" vertex="1">
          <mxGeometry x="910" y="287" width="20" height="30" as="geometry" />
        </mxCell>
        <mxCell id="l0ReFOTLny2DY5NW7kPO-65" value="1:N" style="text;html=1;align=center;verticalAlign=middle;whiteSpace=wrap;rounded=0;" parent="WIyWlLk6GJQsqaUBKTNV-1" vertex="1">
          <mxGeometry x="171.42000000000002" y="333" width="20" height="30" as="geometry" />
        </mxCell>
        <mxCell id="l0ReFOTLny2DY5NW7kPO-66" value="N:1" style="text;html=1;align=center;verticalAlign=middle;whiteSpace=wrap;rounded=0;" parent="WIyWlLk6GJQsqaUBKTNV-1" vertex="1">
          <mxGeometry x="147.8" y="536.25" width="20" height="30" as="geometry" />
        </mxCell>
        <mxCell id="l0ReFOTLny2DY5NW7kPO-67" value="N/A" style="rounded=1;whiteSpace=wrap;html=1;fontSize=12;glass=0;strokeWidth=1;shadow=0;" parent="WIyWlLk6GJQsqaUBKTNV-1" vertex="1">
          <mxGeometry x="1678" y="-151" width="120" height="60" as="geometry" />
        </mxCell>
        <mxCell id="l0ReFOTLny2DY5NW7kPO-75" value="" style="group" parent="WIyWlLk6GJQsqaUBKTNV-1" vertex="1" connectable="0">
          <mxGeometry x="1670" y="-199.5" width="60" height="48.5" as="geometry" />
        </mxCell>
        <mxCell id="l0ReFOTLny2DY5NW7kPO-68" value="" style="endArrow=none;html=1;rounded=0;" parent="l0ReFOTLny2DY5NW7kPO-75" edge="1">
          <mxGeometry width="50" height="50" relative="1" as="geometry">
            <mxPoint x="39.5" y="48.5" as="sourcePoint" />
            <mxPoint x="39.299999999999955" y="28.5" as="targetPoint" />
          </mxGeometry>
        </mxCell>
        <mxCell id="l0ReFOTLny2DY5NW7kPO-69" value="" style="ellipse;whiteSpace=wrap;html=1;strokeWidth=1;fillStyle=auto;" parent="l0ReFOTLny2DY5NW7kPO-75" vertex="1">
          <mxGeometry x="33.5" y="18.5" width="11" height="10" as="geometry" />
        </mxCell>
        <mxCell id="l0ReFOTLny2DY5NW7kPO-70" value="" style="group" parent="l0ReFOTLny2DY5NW7kPO-75" vertex="1" connectable="0">
          <mxGeometry width="60" height="28.5" as="geometry" />
        </mxCell>
        <mxCell id="l0ReFOTLny2DY5NW7kPO-73" value="DDD" style="text;html=1;align=center;verticalAlign=middle;whiteSpace=wrap;rounded=0;fontSize=9;" parent="l0ReFOTLny2DY5NW7kPO-70" vertex="1">
          <mxGeometry x="20" width="40" height="25" as="geometry" />
        </mxCell>
        <mxCell id="l0ReFOTLny2DY5NW7kPO-76" value="" style="group" parent="WIyWlLk6GJQsqaUBKTNV-1" vertex="1" connectable="0">
          <mxGeometry x="1699" y="-200" width="60" height="48.5" as="geometry" />
        </mxCell>
        <mxCell id="l0ReFOTLny2DY5NW7kPO-77" value="" style="endArrow=none;html=1;rounded=0;" parent="l0ReFOTLny2DY5NW7kPO-76" edge="1">
          <mxGeometry width="50" height="50" relative="1" as="geometry">
            <mxPoint x="39.5" y="48.5" as="sourcePoint" />
            <mxPoint x="39.299999999999955" y="28.5" as="targetPoint" />
          </mxGeometry>
        </mxCell>
        <mxCell id="l0ReFOTLny2DY5NW7kPO-78" value="" style="ellipse;whiteSpace=wrap;html=1;strokeWidth=1;fillStyle=auto;" parent="l0ReFOTLny2DY5NW7kPO-76" vertex="1">
          <mxGeometry x="33.5" y="18.5" width="11" height="10" as="geometry" />
        </mxCell>
        <mxCell id="l0ReFOTLny2DY5NW7kPO-79" value="" style="group" parent="l0ReFOTLny2DY5NW7kPO-76" vertex="1" connectable="0">
          <mxGeometry width="60" height="28.5" as="geometry" />
        </mxCell>
        <mxCell id="l0ReFOTLny2DY5NW7kPO-80" value="numero" style="text;html=1;align=center;verticalAlign=middle;whiteSpace=wrap;rounded=0;fontSize=9;" parent="l0ReFOTLny2DY5NW7kPO-79" vertex="1">
          <mxGeometry x="20" width="40" height="25" as="geometry" />
        </mxCell>
        <mxCell id="l0ReFOTLny2DY5NW7kPO-81" value="" style="group" parent="WIyWlLk6GJQsqaUBKTNV-1" vertex="1" connectable="0">
          <mxGeometry x="1747" y="-200" width="60" height="48.5" as="geometry" />
        </mxCell>
        <mxCell id="l0ReFOTLny2DY5NW7kPO-82" value="" style="endArrow=none;html=1;rounded=0;" parent="l0ReFOTLny2DY5NW7kPO-81" edge="1">
          <mxGeometry width="50" height="50" relative="1" as="geometry">
            <mxPoint x="39.5" y="48.5" as="sourcePoint" />
            <mxPoint x="39.299999999999955" y="28.5" as="targetPoint" />
          </mxGeometry>
        </mxCell>
        <mxCell id="l0ReFOTLny2DY5NW7kPO-83" value="" style="ellipse;whiteSpace=wrap;html=1;strokeWidth=1;fillStyle=auto;" parent="l0ReFOTLny2DY5NW7kPO-81" vertex="1">
          <mxGeometry x="33.5" y="18.5" width="11" height="10" as="geometry" />
        </mxCell>
        <mxCell id="l0ReFOTLny2DY5NW7kPO-84" value="" style="group" parent="l0ReFOTLny2DY5NW7kPO-81" vertex="1" connectable="0">
          <mxGeometry width="60" height="28.5" as="geometry" />
        </mxCell>
        <mxCell id="l0ReFOTLny2DY5NW7kPO-85" value="nome" style="text;html=1;align=center;verticalAlign=middle;whiteSpace=wrap;rounded=0;fontSize=9;" parent="l0ReFOTLny2DY5NW7kPO-84" vertex="1">
          <mxGeometry x="20" width="40" height="25" as="geometry" />
        </mxCell>
        <mxCell id="PF6TXPeUtZhbg4gyRheY-6" value="Compra" style="rounded=1;whiteSpace=wrap;html=1;fontSize=12;glass=0;strokeWidth=1;shadow=0;" parent="WIyWlLk6GJQsqaUBKTNV-1" vertex="1">
          <mxGeometry x="1100" y="53.25" width="120" height="60" as="geometry" />
        </mxCell>
        <mxCell id="PF6TXPeUtZhbg4gyRheY-7" value="" style="endArrow=none;html=1;rounded=0;" parent="WIyWlLk6GJQsqaUBKTNV-1" edge="1">
          <mxGeometry width="50" height="50" relative="1" as="geometry">
            <mxPoint x="1110" y="53.25" as="sourcePoint" />
            <mxPoint x="1110" y="-5" as="targetPoint" />
          </mxGeometry>
        </mxCell>
        <mxCell id="PF6TXPeUtZhbg4gyRheY-8" value="" style="ellipse;whiteSpace=wrap;html=1;strokeWidth=1;fillStyle=auto;" parent="WIyWlLk6GJQsqaUBKTNV-1" vertex="1">
          <mxGeometry x="1120" y="-10" width="11" height="10" as="geometry" />
        </mxCell>
        <mxCell id="PF6TXPeUtZhbg4gyRheY-9" value="Data" style="text;html=1;align=center;verticalAlign=middle;whiteSpace=wrap;rounded=0;" parent="WIyWlLk6GJQsqaUBKTNV-1" vertex="1">
          <mxGeometry x="1116" y="-20" width="60" height="30" as="geometry" />
        </mxCell>
        <mxCell id="PF6TXPeUtZhbg4gyRheY-10" value="" style="endArrow=none;html=1;rounded=0;" parent="WIyWlLk6GJQsqaUBKTNV-1" edge="1">
          <mxGeometry width="50" height="50" relative="1" as="geometry">
            <mxPoint x="1120" y="54" as="sourcePoint" />
            <mxPoint x="1120" y="11" as="targetPoint" />
          </mxGeometry>
        </mxCell>
        <mxCell id="PF6TXPeUtZhbg4gyRheY-11" value="" style="ellipse;whiteSpace=wrap;html=1;strokeWidth=1;fillStyle=auto;" parent="WIyWlLk6GJQsqaUBKTNV-1" vertex="1">
          <mxGeometry x="1131" y="6" width="11" height="10" as="geometry" />
        </mxCell>
        <mxCell id="PF6TXPeUtZhbg4gyRheY-12" value="pix_boleto" style="text;html=1;align=center;verticalAlign=middle;whiteSpace=wrap;rounded=0;" parent="WIyWlLk6GJQsqaUBKTNV-1" vertex="1">
          <mxGeometry x="1142" y="-4" width="60" height="30" as="geometry" />
        </mxCell>
        <mxCell id="PF6TXPeUtZhbg4gyRheY-13" value="" style="endArrow=none;html=1;rounded=0;" parent="WIyWlLk6GJQsqaUBKTNV-1" edge="1">
          <mxGeometry width="50" height="50" relative="1" as="geometry">
            <mxPoint x="1110" y="53.25" as="sourcePoint" />
            <mxPoint x="1110" y="-5" as="targetPoint" />
          </mxGeometry>
        </mxCell>
        <mxCell id="PF6TXPeUtZhbg4gyRheY-14" value="" style="endArrow=none;html=1;rounded=0;" parent="WIyWlLk6GJQsqaUBKTNV-1" edge="1">
          <mxGeometry width="50" height="50" relative="1" as="geometry">
            <mxPoint x="1109.5" y="-5" as="sourcePoint" />
            <mxPoint x="1120" y="-5" as="targetPoint" />
          </mxGeometry>
        </mxCell>
        <mxCell id="PF6TXPeUtZhbg4gyRheY-15" value="" style="endArrow=none;html=1;rounded=0;" parent="WIyWlLk6GJQsqaUBKTNV-1" edge="1">
          <mxGeometry width="50" height="50" relative="1" as="geometry">
            <mxPoint x="1120" y="11" as="sourcePoint" />
            <mxPoint x="1130.5" y="11" as="targetPoint" />
          </mxGeometry>
        </mxCell>
        <mxCell id="PF6TXPeUtZhbg4gyRheY-46" value="Chat" style="rounded=1;whiteSpace=wrap;html=1;fontSize=12;glass=0;strokeWidth=1;shadow=0;" parent="WIyWlLk6GJQsqaUBKTNV-1" vertex="1">
          <mxGeometry x="917.2" y="521.25" width="120" height="60" as="geometry" />
        </mxCell>
        <mxCell id="PF6TXPeUtZhbg4gyRheY-48" value="" style="endArrow=none;html=1;rounded=0;" parent="WIyWlLk6GJQsqaUBKTNV-1" edge="1">
          <mxGeometry width="50" height="50" relative="1" as="geometry">
            <mxPoint x="1037.2" y="535" as="sourcePoint" />
            <mxPoint x="1066.2" y="535" as="targetPoint" />
          </mxGeometry>
        </mxCell>
        <mxCell id="PF6TXPeUtZhbg4gyRheY-49" value="" style="ellipse;whiteSpace=wrap;html=1;strokeWidth=1;fillStyle=auto;fillColor=#000000;" parent="WIyWlLk6GJQsqaUBKTNV-1" vertex="1">
          <mxGeometry x="1066.7" y="530" width="11" height="10" as="geometry" />
        </mxCell>
        <mxCell id="PF6TXPeUtZhbg4gyRheY-50" value="" style="group;fontStyle=4" parent="WIyWlLk6GJQsqaUBKTNV-1" vertex="1" connectable="0">
          <mxGeometry x="1056" y="521.75" width="60" height="28.5" as="geometry" />
        </mxCell>
        <mxCell id="PF6TXPeUtZhbg4gyRheY-51" value="&lt;u&gt;id_chat&lt;/u&gt;" style="text;html=1;align=center;verticalAlign=middle;whiteSpace=wrap;rounded=0;fontSize=9;" parent="PF6TXPeUtZhbg4gyRheY-50" vertex="1">
          <mxGeometry x="20" width="40" height="25" as="geometry" />
        </mxCell>
        <mxCell id="PF6TXPeUtZhbg4gyRheY-63" value="" style="endArrow=none;html=1;rounded=0;entryX=0.5;entryY=0;entryDx=0;entryDy=0;" parent="WIyWlLk6GJQsqaUBKTNV-1" target="PF6TXPeUtZhbg4gyRheY-64" edge="1">
          <mxGeometry width="50" height="50" relative="1" as="geometry">
            <mxPoint x="640" y="330" as="sourcePoint" />
            <mxPoint x="720" y="400" as="targetPoint" />
          </mxGeometry>
        </mxCell>
        <mxCell id="PF6TXPeUtZhbg4gyRheY-64" value="Participa" style="rhombus;whiteSpace=wrap;html=1;" parent="WIyWlLk6GJQsqaUBKTNV-1" vertex="1">
          <mxGeometry x="710" y="511.25" width="120" height="80" as="geometry" />
        </mxCell>
        <mxCell id="PF6TXPeUtZhbg4gyRheY-65" value="" style="endArrow=none;html=1;rounded=0;" parent="WIyWlLk6GJQsqaUBKTNV-1" edge="1">
          <mxGeometry width="50" height="50" relative="1" as="geometry">
            <mxPoint x="830" y="550.76" as="sourcePoint" />
            <mxPoint x="916" y="550.76" as="targetPoint" />
          </mxGeometry>
        </mxCell>
        <mxCell id="PF6TXPeUtZhbg4gyRheY-66" value="1:2" style="text;html=1;align=center;verticalAlign=middle;whiteSpace=wrap;rounded=0;" parent="WIyWlLk6GJQsqaUBKTNV-1" vertex="1">
          <mxGeometry x="896.2" y="528.25" width="20" height="30" as="geometry" />
        </mxCell>
        <mxCell id="PF6TXPeUtZhbg4gyRheY-67" value="1:N" style="text;html=1;align=center;verticalAlign=middle;whiteSpace=wrap;rounded=0;" parent="WIyWlLk6GJQsqaUBKTNV-1" vertex="1">
          <mxGeometry x="644" y="317" width="20" height="30" as="geometry" />
        </mxCell>
        <mxCell id="_60zvl8MqvEbd_1B-xa8-0" value="" style="endArrow=none;html=1;rounded=0;" edge="1" parent="WIyWlLk6GJQsqaUBKTNV-1">
          <mxGeometry width="50" height="50" relative="1" as="geometry">
            <mxPoint x="1037.2" y="550.96" as="sourcePoint" />
            <mxPoint x="1123.2" y="550.96" as="targetPoint" />
          </mxGeometry>
        </mxCell>
        <mxCell id="_60zvl8MqvEbd_1B-xa8-1" value="Contém" style="rhombus;whiteSpace=wrap;html=1;" vertex="1" parent="WIyWlLk6GJQsqaUBKTNV-1">
          <mxGeometry x="1120" y="511.25" width="120" height="80" as="geometry" />
        </mxCell>
        <mxCell id="_60zvl8MqvEbd_1B-xa8-2" value="" style="endArrow=none;html=1;rounded=0;" edge="1" parent="WIyWlLk6GJQsqaUBKTNV-1">
          <mxGeometry width="50" height="50" relative="1" as="geometry">
            <mxPoint x="1240" y="550.96" as="sourcePoint" />
            <mxPoint x="1326" y="550.96" as="targetPoint" />
          </mxGeometry>
        </mxCell>
        <mxCell id="_60zvl8MqvEbd_1B-xa8-3" value="Mensagem" style="rounded=1;whiteSpace=wrap;html=1;fontSize=12;glass=0;strokeWidth=1;shadow=0;" vertex="1" parent="WIyWlLk6GJQsqaUBKTNV-1">
          <mxGeometry x="1320" y="521.25" width="120" height="60" as="geometry" />
        </mxCell>
        <mxCell id="_60zvl8MqvEbd_1B-xa8-6" value="" style="endArrow=none;html=1;rounded=0;" edge="1" parent="WIyWlLk6GJQsqaUBKTNV-1" source="_60zvl8MqvEbd_1B-xa8-7">
          <mxGeometry width="50" height="50" relative="1" as="geometry">
            <mxPoint x="1440" y="530" as="sourcePoint" />
            <mxPoint x="1469" y="530" as="targetPoint" />
          </mxGeometry>
        </mxCell>
        <mxCell id="_60zvl8MqvEbd_1B-xa8-9" value="" style="endArrow=none;html=1;rounded=0;" edge="1" parent="WIyWlLk6GJQsqaUBKTNV-1" target="_60zvl8MqvEbd_1B-xa8-7">
          <mxGeometry width="50" height="50" relative="1" as="geometry">
            <mxPoint x="1440" y="530" as="sourcePoint" />
            <mxPoint x="1469" y="530" as="targetPoint" />
          </mxGeometry>
        </mxCell>
        <mxCell id="_60zvl8MqvEbd_1B-xa8-7" value="" style="ellipse;whiteSpace=wrap;html=1;strokeWidth=1;fillStyle=auto;fillColor=#000000;" vertex="1" parent="WIyWlLk6GJQsqaUBKTNV-1">
          <mxGeometry x="1470" y="525.25" width="11" height="10" as="geometry" />
        </mxCell>
        <mxCell id="_60zvl8MqvEbd_1B-xa8-10" value="" style="group;fontStyle=4" vertex="1" connectable="0" parent="WIyWlLk6GJQsqaUBKTNV-1">
          <mxGeometry x="1472" y="516" width="60" height="28.5" as="geometry" />
        </mxCell>
        <mxCell id="_60zvl8MqvEbd_1B-xa8-11" value="&lt;u&gt;id_mensagem&lt;/u&gt;" style="text;html=1;align=center;verticalAlign=middle;whiteSpace=wrap;rounded=0;fontSize=9;" vertex="1" parent="_60zvl8MqvEbd_1B-xa8-10">
          <mxGeometry x="20" width="40" height="25" as="geometry" />
        </mxCell>
        <mxCell id="_60zvl8MqvEbd_1B-xa8-14" value="" style="endArrow=none;html=1;rounded=0;" edge="1" parent="WIyWlLk6GJQsqaUBKTNV-1" source="_60zvl8MqvEbd_1B-xa8-16">
          <mxGeometry width="50" height="50" relative="1" as="geometry">
            <mxPoint x="1440" y="550" as="sourcePoint" />
            <mxPoint x="1469" y="550" as="targetPoint" />
          </mxGeometry>
        </mxCell>
        <mxCell id="_60zvl8MqvEbd_1B-xa8-15" value="" style="endArrow=none;html=1;rounded=0;" edge="1" parent="WIyWlLk6GJQsqaUBKTNV-1" target="_60zvl8MqvEbd_1B-xa8-16">
          <mxGeometry width="50" height="50" relative="1" as="geometry">
            <mxPoint x="1440" y="550" as="sourcePoint" />
            <mxPoint x="1469" y="550" as="targetPoint" />
          </mxGeometry>
        </mxCell>
        <mxCell id="_60zvl8MqvEbd_1B-xa8-16" value="" style="ellipse;whiteSpace=wrap;html=1;strokeWidth=1;fillStyle=auto;" vertex="1" parent="WIyWlLk6GJQsqaUBKTNV-1">
          <mxGeometry x="1470" y="545.25" width="11" height="10" as="geometry" />
        </mxCell>
        <mxCell id="_60zvl8MqvEbd_1B-xa8-17" value="" style="group;fontStyle=0" vertex="1" connectable="0" parent="WIyWlLk6GJQsqaUBKTNV-1">
          <mxGeometry x="1462" y="536" width="60" height="28.5" as="geometry" />
        </mxCell>
        <mxCell id="_60zvl8MqvEbd_1B-xa8-18" value="conteúdo" style="text;html=1;align=center;verticalAlign=middle;whiteSpace=wrap;rounded=0;fontSize=9;" vertex="1" parent="_60zvl8MqvEbd_1B-xa8-17">
          <mxGeometry x="20" width="40" height="25" as="geometry" />
        </mxCell>
        <mxCell id="_60zvl8MqvEbd_1B-xa8-19" value="Contém" style="rhombus;whiteSpace=wrap;html=1;" vertex="1" parent="WIyWlLk6GJQsqaUBKTNV-1">
          <mxGeometry x="1131" y="516.25" width="98" height="70" as="geometry" />
        </mxCell>
        <mxCell id="_60zvl8MqvEbd_1B-xa8-20" value="Mensagem" style="rounded=1;whiteSpace=wrap;html=1;fontSize=12;glass=0;strokeWidth=1;shadow=0;" vertex="1" parent="WIyWlLk6GJQsqaUBKTNV-1">
          <mxGeometry x="1330" y="531.25" width="100" height="40" as="geometry" />
        </mxCell>
        <mxCell id="_60zvl8MqvEbd_1B-xa8-21" value="" style="endArrow=none;html=1;rounded=0;" edge="1" parent="WIyWlLk6GJQsqaUBKTNV-1" source="_60zvl8MqvEbd_1B-xa8-23">
          <mxGeometry width="50" height="50" relative="1" as="geometry">
            <mxPoint x="1440" y="568" as="sourcePoint" />
            <mxPoint x="1469" y="568" as="targetPoint" />
          </mxGeometry>
        </mxCell>
        <mxCell id="_60zvl8MqvEbd_1B-xa8-22" value="" style="endArrow=none;html=1;rounded=0;" edge="1" parent="WIyWlLk6GJQsqaUBKTNV-1" target="_60zvl8MqvEbd_1B-xa8-23">
          <mxGeometry width="50" height="50" relative="1" as="geometry">
            <mxPoint x="1440" y="568" as="sourcePoint" />
            <mxPoint x="1469" y="568" as="targetPoint" />
          </mxGeometry>
        </mxCell>
        <mxCell id="_60zvl8MqvEbd_1B-xa8-23" value="" style="ellipse;whiteSpace=wrap;html=1;strokeWidth=1;fillStyle=auto;" vertex="1" parent="WIyWlLk6GJQsqaUBKTNV-1">
          <mxGeometry x="1470" y="563.25" width="11" height="10" as="geometry" />
        </mxCell>
        <mxCell id="_60zvl8MqvEbd_1B-xa8-24" value="" style="group;fontStyle=0" vertex="1" connectable="0" parent="WIyWlLk6GJQsqaUBKTNV-1">
          <mxGeometry x="1458" y="555" width="60" height="28.5" as="geometry" />
        </mxCell>
        <mxCell id="_60zvl8MqvEbd_1B-xa8-25" value="horário" style="text;html=1;align=center;verticalAlign=middle;whiteSpace=wrap;rounded=0;fontSize=9;" vertex="1" parent="_60zvl8MqvEbd_1B-xa8-24">
          <mxGeometry x="20" width="40" height="25" as="geometry" />
        </mxCell>
        <mxCell id="_60zvl8MqvEbd_1B-xa8-30" value="1:N" style="text;html=1;align=center;verticalAlign=middle;whiteSpace=wrap;rounded=0;" vertex="1" parent="WIyWlLk6GJQsqaUBKTNV-1">
          <mxGeometry x="1298" y="528.25" width="20" height="30" as="geometry" />
        </mxCell>
        <mxCell id="_60zvl8MqvEbd_1B-xa8-100" value="" style="endArrow=none;html=1;rounded=0;entryX=0.013;entryY=0.056;entryDx=0;entryDy=0;exitX=0.5;exitY=1;exitDx=0;exitDy=0;entryPerimeter=0;" edge="1" parent="WIyWlLk6GJQsqaUBKTNV-1" target="l0ReFOTLny2DY5NW7kPO-25">
          <mxGeometry width="50" height="50" relative="1" as="geometry">
            <mxPoint x="817.4" y="53.249999999999545" as="sourcePoint" />
            <mxPoint x="929.9999999999999" y="272.0400000000004" as="targetPoint" />
          </mxGeometry>
        </mxCell>
        <mxCell id="_60zvl8MqvEbd_1B-xa8-101" value="Comercializa" style="rhombus;whiteSpace=wrap;html=1;" vertex="1" parent="WIyWlLk6GJQsqaUBKTNV-1">
          <mxGeometry x="761" y="-19.25" width="120" height="80" as="geometry" />
        </mxCell>
        <mxCell id="_60zvl8MqvEbd_1B-xa8-105" value="" style="endArrow=none;html=1;rounded=0;entryX=0.5;entryY=0;entryDx=0;entryDy=0;exitX=0.5;exitY=1;exitDx=0;exitDy=0;" edge="1" parent="WIyWlLk6GJQsqaUBKTNV-1" source="_60zvl8MqvEbd_1B-xa8-106">
          <mxGeometry width="50" height="50" relative="1" as="geometry">
            <mxPoint x="310" y="180" as="sourcePoint" />
            <mxPoint x="230" y="284.31" as="targetPoint" />
          </mxGeometry>
        </mxCell>
        <mxCell id="_60zvl8MqvEbd_1B-xa8-106" value="Comercializa" style="rhombus;whiteSpace=wrap;html=1;" vertex="1" parent="WIyWlLk6GJQsqaUBKTNV-1">
          <mxGeometry x="260" y="-19.25" width="120" height="80" as="geometry" />
        </mxCell>
        <mxCell id="_60zvl8MqvEbd_1B-xa8-108" value="" style="group" vertex="1" connectable="0" parent="WIyWlLk6GJQsqaUBKTNV-1">
          <mxGeometry x="440" y="411" width="198" height="108.25" as="geometry" />
        </mxCell>
        <mxCell id="_60zvl8MqvEbd_1B-xa8-31" value="Endereço" style="rounded=1;whiteSpace=wrap;html=1;fontSize=12;glass=0;strokeWidth=1;shadow=0;container=0;" vertex="1" parent="_60zvl8MqvEbd_1B-xa8-108">
          <mxGeometry x="78" y="48.25" width="120" height="60" as="geometry" />
        </mxCell>
        <mxCell id="_60zvl8MqvEbd_1B-xa8-44" value="" style="endArrow=none;html=1;rounded=0;" edge="1" parent="_60zvl8MqvEbd_1B-xa8-108">
          <mxGeometry width="50" height="50" relative="1" as="geometry">
            <mxPoint x="146.5" y="49.25" as="sourcePoint" />
            <mxPoint x="146.29999999999995" y="29.25" as="targetPoint" />
          </mxGeometry>
        </mxCell>
        <mxCell id="_60zvl8MqvEbd_1B-xa8-45" value="" style="ellipse;whiteSpace=wrap;html=1;strokeWidth=1;fillStyle=auto;container=0;" vertex="1" parent="_60zvl8MqvEbd_1B-xa8-108">
          <mxGeometry x="140.5" y="19.25" width="11" height="10" as="geometry" />
        </mxCell>
        <mxCell id="_60zvl8MqvEbd_1B-xa8-49" value="" style="endArrow=none;html=1;rounded=0;" edge="1" parent="_60zvl8MqvEbd_1B-xa8-108">
          <mxGeometry width="50" height="50" relative="1" as="geometry">
            <mxPoint x="173.5" y="48.5" as="sourcePoint" />
            <mxPoint x="173.29999999999995" y="28.5" as="targetPoint" />
          </mxGeometry>
        </mxCell>
        <mxCell id="_60zvl8MqvEbd_1B-xa8-50" value="" style="ellipse;whiteSpace=wrap;html=1;strokeWidth=1;fillStyle=auto;container=0;" vertex="1" parent="_60zvl8MqvEbd_1B-xa8-108">
          <mxGeometry x="167.5" y="18.5" width="11" height="10" as="geometry" />
        </mxCell>
        <mxCell id="_60zvl8MqvEbd_1B-xa8-52" value="cidade" style="text;html=1;align=center;verticalAlign=middle;whiteSpace=wrap;rounded=0;fontSize=9;container=0;" vertex="1" parent="_60zvl8MqvEbd_1B-xa8-108">
          <mxGeometry x="155" width="40" height="25" as="geometry" />
        </mxCell>
        <mxCell id="_60zvl8MqvEbd_1B-xa8-33" value="" style="endArrow=none;html=1;rounded=0;" edge="1" parent="_60zvl8MqvEbd_1B-xa8-108">
          <mxGeometry width="50" height="50" relative="1" as="geometry">
            <mxPoint x="91.5" y="49.25" as="sourcePoint" />
            <mxPoint x="91.29999999999995" y="29.25" as="targetPoint" />
          </mxGeometry>
        </mxCell>
        <mxCell id="_60zvl8MqvEbd_1B-xa8-34" value="" style="ellipse;whiteSpace=wrap;html=1;strokeWidth=1;fillStyle=auto;container=0;" vertex="1" parent="_60zvl8MqvEbd_1B-xa8-108">
          <mxGeometry x="85.5" y="19.25" width="11" height="10" as="geometry" />
        </mxCell>
        <mxCell id="_60zvl8MqvEbd_1B-xa8-36" value="rua" style="text;html=1;align=center;verticalAlign=middle;whiteSpace=wrap;rounded=0;fontSize=9;container=0;" vertex="1" parent="_60zvl8MqvEbd_1B-xa8-108">
          <mxGeometry x="72" y="0.75" width="40" height="25" as="geometry" />
        </mxCell>
        <mxCell id="_60zvl8MqvEbd_1B-xa8-38" value="" style="endArrow=none;html=1;rounded=0;" edge="1" parent="_60zvl8MqvEbd_1B-xa8-108">
          <mxGeometry width="50" height="50" relative="1" as="geometry">
            <mxPoint x="117.5" y="49.5" as="sourcePoint" />
            <mxPoint x="117.29999999999995" y="29.5" as="targetPoint" />
          </mxGeometry>
        </mxCell>
        <mxCell id="_60zvl8MqvEbd_1B-xa8-39" value="" style="ellipse;whiteSpace=wrap;html=1;strokeWidth=1;fillStyle=auto;container=0;" vertex="1" parent="_60zvl8MqvEbd_1B-xa8-108">
          <mxGeometry x="111.5" y="19.5" width="11" height="10" as="geometry" />
        </mxCell>
        <mxCell id="_60zvl8MqvEbd_1B-xa8-41" value="numero" style="text;html=1;align=center;verticalAlign=middle;whiteSpace=wrap;rounded=0;fontSize=9;container=0;" vertex="1" parent="_60zvl8MqvEbd_1B-xa8-108">
          <mxGeometry x="98" y="1" width="40" height="25" as="geometry" />
        </mxCell>
        <mxCell id="_60zvl8MqvEbd_1B-xa8-47" value="bairro" style="text;html=1;align=center;verticalAlign=middle;whiteSpace=wrap;rounded=0;fontSize=9;container=0;" vertex="1" parent="_60zvl8MqvEbd_1B-xa8-108">
          <mxGeometry x="127" y="0.75" width="40" height="25" as="geometry" />
        </mxCell>
        <mxCell id="_60zvl8MqvEbd_1B-xa8-109" value="" style="endArrow=none;html=1;rounded=0;entryX=0;entryY=0.5;entryDx=0;entryDy=0;" edge="1" parent="WIyWlLk6GJQsqaUBKTNV-1" target="l0ReFOTLny2DY5NW7kPO-89">
          <mxGeometry width="50" height="50" relative="1" as="geometry">
            <mxPoint x="380" y="20.389999999999986" as="sourcePoint" />
            <mxPoint x="464" y="20.189999999999998" as="targetPoint" />
          </mxGeometry>
        </mxCell>
        <mxCell id="_60zvl8MqvEbd_1B-xa8-110" value="" style="endArrow=none;html=1;rounded=0;entryX=0;entryY=0.5;entryDx=0;entryDy=0;" edge="1" parent="WIyWlLk6GJQsqaUBKTNV-1">
          <mxGeometry width="50" height="50" relative="1" as="geometry">
            <mxPoint x="631" y="20.389999999999986" as="sourcePoint" />
            <mxPoint x="761" y="20" as="targetPoint" />
          </mxGeometry>
        </mxCell>
        <mxCell id="_60zvl8MqvEbd_1B-xa8-111" value="1:N" style="text;html=1;align=center;verticalAlign=middle;whiteSpace=wrap;rounded=0;" vertex="1" parent="WIyWlLk6GJQsqaUBKTNV-1">
          <mxGeometry x="295" y="50" width="20" height="30" as="geometry" />
        </mxCell>
        <mxCell id="_60zvl8MqvEbd_1B-xa8-112" value="1:N" style="text;html=1;align=center;verticalAlign=middle;whiteSpace=wrap;rounded=0;" vertex="1" parent="WIyWlLk6GJQsqaUBKTNV-1">
          <mxGeometry x="830" y="50" width="20" height="30" as="geometry" />
        </mxCell>
        <mxCell id="_60zvl8MqvEbd_1B-xa8-113" value="" style="endArrow=none;html=1;rounded=0;entryX=0;entryY=0.5;entryDx=0;entryDy=0;" edge="1" parent="WIyWlLk6GJQsqaUBKTNV-1" target="_60zvl8MqvEbd_1B-xa8-114">
          <mxGeometry width="50" height="50" relative="1" as="geometry">
            <mxPoint x="231" y="287" as="sourcePoint" />
            <mxPoint x="340" y="180" as="targetPoint" />
          </mxGeometry>
        </mxCell>
        <mxCell id="_60zvl8MqvEbd_1B-xa8-114" value="Responsabiliza" style="rhombus;whiteSpace=wrap;html=1;" vertex="1" parent="WIyWlLk6GJQsqaUBKTNV-1">
          <mxGeometry x="510" y="90" width="120" height="80" as="geometry" />
        </mxCell>
        <mxCell id="l0ReFOTLny2DY5NW7kPO-89" value="Produto(s)" style="rounded=1;whiteSpace=wrap;html=1;fontSize=12;glass=0;strokeWidth=1;shadow=0;" parent="WIyWlLk6GJQsqaUBKTNV-1" vertex="1">
          <mxGeometry x="510" y="-10" width="120" height="60" as="geometry" />
        </mxCell>
        <mxCell id="PF6TXPeUtZhbg4gyRheY-22" value="" style="endArrow=none;html=1;rounded=0;exitX=0.034;exitY=0.073;exitDx=0;exitDy=0;exitPerimeter=0;" parent="WIyWlLk6GJQsqaUBKTNV-1" edge="1">
          <mxGeometry width="50" height="50" relative="1" as="geometry">
            <mxPoint x="531.04" y="-10.059999999999945" as="sourcePoint" />
            <mxPoint x="530.5" y="-98.25" as="targetPoint" />
          </mxGeometry>
        </mxCell>
        <mxCell id="PF6TXPeUtZhbg4gyRheY-26" value="" style="endArrow=none;html=1;rounded=0;" parent="WIyWlLk6GJQsqaUBKTNV-1" edge="1">
          <mxGeometry width="50" height="50" relative="1" as="geometry">
            <mxPoint x="541" y="-10.25" as="sourcePoint" />
            <mxPoint x="540" y="-81.25" as="targetPoint" />
          </mxGeometry>
        </mxCell>
        <mxCell id="PF6TXPeUtZhbg4gyRheY-27" value="" style="endArrow=none;html=1;rounded=0;" parent="WIyWlLk6GJQsqaUBKTNV-1" edge="1">
          <mxGeometry width="50" height="50" relative="1" as="geometry">
            <mxPoint x="540" y="-81.25" as="sourcePoint" />
            <mxPoint x="550.5" y="-81.25" as="targetPoint" />
          </mxGeometry>
        </mxCell>
        <mxCell id="PF6TXPeUtZhbg4gyRheY-37" value="descricao" style="text;html=1;align=center;verticalAlign=middle;whiteSpace=wrap;rounded=0;fontSize=10;" parent="WIyWlLk6GJQsqaUBKTNV-1" vertex="1">
          <mxGeometry x="546" y="-113.25" width="60" height="30" as="geometry" />
        </mxCell>
        <mxCell id="PF6TXPeUtZhbg4gyRheY-40" value="Detalhes_tecnicos" style="text;html=1;align=center;verticalAlign=middle;whiteSpace=wrap;rounded=0;fontSize=7;" parent="WIyWlLk6GJQsqaUBKTNV-1" vertex="1">
          <mxGeometry x="573" y="-77.75" width="60" height="19" as="geometry" />
        </mxCell>
        <mxCell id="PF6TXPeUtZhbg4gyRheY-41" value="" style="ellipse;whiteSpace=wrap;html=1;strokeWidth=1;fillStyle=auto;" parent="WIyWlLk6GJQsqaUBKTNV-1" vertex="1">
          <mxGeometry x="561" y="-72.25" width="11" height="10" as="geometry" />
        </mxCell>
        <mxCell id="PF6TXPeUtZhbg4gyRheY-42" value="id_produto" style="text;html=1;align=center;verticalAlign=middle;whiteSpace=wrap;rounded=0;fontSize=7;fontStyle=4" parent="WIyWlLk6GJQsqaUBKTNV-1" vertex="1">
          <mxGeometry x="574" y="-60.75" width="60" height="19" as="geometry" />
        </mxCell>
        <mxCell id="PF6TXPeUtZhbg4gyRheY-43" value="" style="endArrow=none;html=1;rounded=0;" parent="WIyWlLk6GJQsqaUBKTNV-1" edge="1">
          <mxGeometry width="50" height="50" relative="1" as="geometry">
            <mxPoint x="563" y="-10.25" as="sourcePoint" />
            <mxPoint x="563" y="-50" as="targetPoint" />
          </mxGeometry>
        </mxCell>
        <mxCell id="PF6TXPeUtZhbg4gyRheY-44" value="" style="endArrow=none;html=1;rounded=0;" parent="WIyWlLk6GJQsqaUBKTNV-1" edge="1">
          <mxGeometry width="50" height="50" relative="1" as="geometry">
            <mxPoint x="563" y="-50.25" as="sourcePoint" />
            <mxPoint x="573.5" y="-50.25" as="targetPoint" />
          </mxGeometry>
        </mxCell>
        <mxCell id="PF6TXPeUtZhbg4gyRheY-45" value="" style="ellipse;whiteSpace=wrap;html=1;strokeWidth=1;fillStyle=auto;fillColor=#000000;" parent="WIyWlLk6GJQsqaUBKTNV-1" vertex="1">
          <mxGeometry x="574" y="-55.25" width="11" height="10" as="geometry" />
        </mxCell>
        <mxCell id="PF6TXPeUtZhbg4gyRheY-16" value="" style="endArrow=none;html=1;rounded=0;" parent="WIyWlLk6GJQsqaUBKTNV-1" edge="1">
          <mxGeometry width="50" height="50" relative="1" as="geometry">
            <mxPoint x="521" y="-10.25" as="sourcePoint" />
            <mxPoint x="521" y="-112" as="targetPoint" />
          </mxGeometry>
        </mxCell>
        <mxCell id="PF6TXPeUtZhbg4gyRheY-17" value="" style="endArrow=none;html=1;rounded=0;" parent="WIyWlLk6GJQsqaUBKTNV-1" edge="1">
          <mxGeometry width="50" height="50" relative="1" as="geometry">
            <mxPoint x="520.5" y="-112.25" as="sourcePoint" />
            <mxPoint x="531" y="-112.25" as="targetPoint" />
          </mxGeometry>
        </mxCell>
        <mxCell id="PF6TXPeUtZhbg4gyRheY-18" value="" style="ellipse;whiteSpace=wrap;html=1;strokeWidth=1;fillStyle=auto;" parent="WIyWlLk6GJQsqaUBKTNV-1" vertex="1">
          <mxGeometry x="541" y="-102.25" width="11" height="10" as="geometry" />
        </mxCell>
        <mxCell id="PF6TXPeUtZhbg4gyRheY-19" value="Nome" style="text;html=1;align=center;verticalAlign=middle;whiteSpace=wrap;rounded=0;fontSize=10;" parent="WIyWlLk6GJQsqaUBKTNV-1" vertex="1">
          <mxGeometry x="526.5" y="-127.25" width="60" height="30" as="geometry" />
        </mxCell>
        <mxCell id="PF6TXPeUtZhbg4gyRheY-24" value="" style="ellipse;whiteSpace=wrap;html=1;strokeWidth=1;fillStyle=auto;" parent="WIyWlLk6GJQsqaUBKTNV-1" vertex="1">
          <mxGeometry x="551" y="-86.25" width="11" height="10" as="geometry" />
        </mxCell>
        <mxCell id="PF6TXPeUtZhbg4gyRheY-23" value="" style="endArrow=none;html=1;rounded=0;" parent="WIyWlLk6GJQsqaUBKTNV-1" edge="1">
          <mxGeometry width="50" height="50" relative="1" as="geometry">
            <mxPoint x="530.5" y="-98.25" as="sourcePoint" />
            <mxPoint x="541" y="-98.25" as="targetPoint" />
          </mxGeometry>
        </mxCell>
        <mxCell id="PF6TXPeUtZhbg4gyRheY-25" value="Valor" style="text;html=1;align=center;verticalAlign=middle;whiteSpace=wrap;rounded=0;fontSize=10;" parent="WIyWlLk6GJQsqaUBKTNV-1" vertex="1">
          <mxGeometry x="552" y="-97.25" width="47.5" height="30" as="geometry" />
        </mxCell>
        <mxCell id="PF6TXPeUtZhbg4gyRheY-36" value="" style="ellipse;whiteSpace=wrap;html=1;strokeWidth=1;fillStyle=auto;" parent="WIyWlLk6GJQsqaUBKTNV-1" vertex="1">
          <mxGeometry x="530.5" y="-117.25" width="11" height="10" as="geometry" />
        </mxCell>
        <mxCell id="PF6TXPeUtZhbg4gyRheY-38" value="" style="endArrow=none;html=1;rounded=0;" parent="WIyWlLk6GJQsqaUBKTNV-1" edge="1">
          <mxGeometry width="50" height="50" relative="1" as="geometry">
            <mxPoint x="552.5" y="-11" as="sourcePoint" />
            <mxPoint x="551.5" y="-67" as="targetPoint" />
          </mxGeometry>
        </mxCell>
        <mxCell id="PF6TXPeUtZhbg4gyRheY-39" value="" style="endArrow=none;html=1;rounded=0;" parent="WIyWlLk6GJQsqaUBKTNV-1" edge="1">
          <mxGeometry width="50" height="50" relative="1" as="geometry">
            <mxPoint x="551" y="-67.25" as="sourcePoint" />
            <mxPoint x="561.5" y="-67.25" as="targetPoint" />
          </mxGeometry>
        </mxCell>
        <mxCell id="_60zvl8MqvEbd_1B-xa8-117" value="" style="endArrow=none;html=1;rounded=0;exitX=1;exitY=0;exitDx=0;exitDy=0;entryX=1;entryY=0.5;entryDx=0;entryDy=0;" edge="1" parent="WIyWlLk6GJQsqaUBKTNV-1" source="l0ReFOTLny2DY5NW7kPO-55" target="_60zvl8MqvEbd_1B-xa8-114">
          <mxGeometry width="50" height="50" relative="1" as="geometry">
            <mxPoint x="900" y="297.75" as="sourcePoint" />
            <mxPoint x="630" y="127.75" as="targetPoint" />
          </mxGeometry>
        </mxCell>
        <mxCell id="_60zvl8MqvEbd_1B-xa8-118" value="1:1" style="text;html=1;align=center;verticalAlign=middle;whiteSpace=wrap;rounded=0;" vertex="1" parent="WIyWlLk6GJQsqaUBKTNV-1">
          <mxGeometry x="485" y="110" width="20" height="30" as="geometry" />
        </mxCell>
        <mxCell id="_60zvl8MqvEbd_1B-xa8-120" value="1:1" style="text;html=1;align=center;verticalAlign=middle;whiteSpace=wrap;rounded=0;" vertex="1" parent="WIyWlLk6GJQsqaUBKTNV-1">
          <mxGeometry x="639" y="111" width="20" height="30" as="geometry" />
        </mxCell>
        <mxCell id="_60zvl8MqvEbd_1B-xa8-121" value="" style="endArrow=none;html=1;rounded=0;entryX=0.5;entryY=1;entryDx=0;entryDy=0;" edge="1" parent="WIyWlLk6GJQsqaUBKTNV-1" target="_60zvl8MqvEbd_1B-xa8-128">
          <mxGeometry width="50" height="50" relative="1" as="geometry">
            <mxPoint x="231" y="590" as="sourcePoint" />
            <mxPoint x="330" y="590" as="targetPoint" />
          </mxGeometry>
        </mxCell>
        <mxCell id="_60zvl8MqvEbd_1B-xa8-122" value="Possui" style="rhombus;whiteSpace=wrap;html=1;" vertex="1" parent="WIyWlLk6GJQsqaUBKTNV-1">
          <mxGeometry x="295" y="439.25" width="120" height="80" as="geometry" />
        </mxCell>
        <mxCell id="_60zvl8MqvEbd_1B-xa8-55" value="" style="endArrow=none;html=1;rounded=0;exitX=0.517;exitY=1.04;exitDx=0;exitDy=0;exitPerimeter=0;" edge="1" parent="WIyWlLk6GJQsqaUBKTNV-1">
          <mxGeometry width="50" height="50" relative="1" as="geometry">
            <mxPoint x="532.04" y="519.6500000000001" as="sourcePoint" />
            <mxPoint x="532" y="545.75" as="targetPoint" />
          </mxGeometry>
        </mxCell>
        <mxCell id="_60zvl8MqvEbd_1B-xa8-56" value="" style="ellipse;whiteSpace=wrap;html=1;strokeWidth=1;fillStyle=auto;container=0;" vertex="1" parent="WIyWlLk6GJQsqaUBKTNV-1">
          <mxGeometry x="526.5" y="546.25" width="11" height="10" as="geometry" />
        </mxCell>
        <mxCell id="_60zvl8MqvEbd_1B-xa8-58" value="estado" style="text;html=1;align=center;verticalAlign=middle;whiteSpace=wrap;rounded=0;fontSize=9;container=0;" vertex="1" parent="WIyWlLk6GJQsqaUBKTNV-1">
          <mxGeometry x="511.5" y="548.25" width="40" height="25" as="geometry" />
        </mxCell>
        <mxCell id="_60zvl8MqvEbd_1B-xa8-67" value="cep" style="text;html=1;align=center;verticalAlign=middle;whiteSpace=wrap;rounded=0;fontSize=9;container=0;" vertex="1" parent="WIyWlLk6GJQsqaUBKTNV-1">
          <mxGeometry x="545" y="547.25" width="40" height="25" as="geometry" />
        </mxCell>
        <mxCell id="_60zvl8MqvEbd_1B-xa8-70" value="id_endereco" style="text;html=1;align=center;verticalAlign=middle;whiteSpace=wrap;rounded=0;fontSize=9;fontStyle=4;container=0;" vertex="1" parent="WIyWlLk6GJQsqaUBKTNV-1">
          <mxGeometry x="584.08" y="548.25" width="40" height="25" as="geometry" />
        </mxCell>
        <mxCell id="_60zvl8MqvEbd_1B-xa8-124" value="" style="endArrow=none;html=1;rounded=0;exitX=0.312;exitY=1.004;exitDx=0;exitDy=0;exitPerimeter=0;" edge="1" parent="WIyWlLk6GJQsqaUBKTNV-1">
          <mxGeometry width="50" height="50" relative="1" as="geometry">
            <mxPoint x="564.4399999999999" y="519.4899999999998" as="sourcePoint" />
            <mxPoint x="564.5" y="546.0999999999999" as="targetPoint" />
          </mxGeometry>
        </mxCell>
        <mxCell id="_60zvl8MqvEbd_1B-xa8-125" value="" style="ellipse;whiteSpace=wrap;html=1;strokeWidth=1;fillStyle=auto;container=0;" vertex="1" parent="WIyWlLk6GJQsqaUBKTNV-1">
          <mxGeometry x="559" y="546.5999999999999" width="11" height="10" as="geometry" />
        </mxCell>
        <mxCell id="_60zvl8MqvEbd_1B-xa8-126" value="" style="endArrow=none;html=1;rounded=0;exitX=0.312;exitY=1.004;exitDx=0;exitDy=0;exitPerimeter=0;" edge="1" parent="WIyWlLk6GJQsqaUBKTNV-1">
          <mxGeometry width="50" height="50" relative="1" as="geometry">
            <mxPoint x="600" y="519" as="sourcePoint" />
            <mxPoint x="600.5" y="546.0999999999999" as="targetPoint" />
          </mxGeometry>
        </mxCell>
        <mxCell id="_60zvl8MqvEbd_1B-xa8-127" value="" style="ellipse;whiteSpace=wrap;html=1;strokeWidth=1;fillStyle=auto;container=0;fillColor=#000000;" vertex="1" parent="WIyWlLk6GJQsqaUBKTNV-1">
          <mxGeometry x="595" y="546.5999999999999" width="11" height="10" as="geometry" />
        </mxCell>
        <mxCell id="_60zvl8MqvEbd_1B-xa8-129" value="" style="endArrow=none;html=1;rounded=0;entryX=0.5;entryY=0;entryDx=0;entryDy=0;" edge="1" parent="WIyWlLk6GJQsqaUBKTNV-1" target="_60zvl8MqvEbd_1B-xa8-128">
          <mxGeometry width="50" height="50" relative="1" as="geometry">
            <mxPoint x="229.73000000000002" y="333" as="sourcePoint" />
            <mxPoint x="350" y="430" as="targetPoint" />
          </mxGeometry>
        </mxCell>
        <mxCell id="_60zvl8MqvEbd_1B-xa8-130" value="" style="endArrow=none;html=1;rounded=0;" edge="1" parent="WIyWlLk6GJQsqaUBKTNV-1">
          <mxGeometry width="50" height="50" relative="1" as="geometry">
            <mxPoint x="418" y="482" as="sourcePoint" />
            <mxPoint x="518" y="482" as="targetPoint" />
          </mxGeometry>
        </mxCell>
        <mxCell id="_60zvl8MqvEbd_1B-xa8-131" value="" style="endArrow=none;html=1;rounded=0;" edge="1" parent="WIyWlLk6GJQsqaUBKTNV-1">
          <mxGeometry width="50" height="50" relative="1" as="geometry">
            <mxPoint x="639" y="490.12" as="sourcePoint" />
            <mxPoint x="810" y="430" as="targetPoint" />
          </mxGeometry>
        </mxCell>
        <mxCell id="_60zvl8MqvEbd_1B-xa8-132" value="Possui" style="rhombus;whiteSpace=wrap;html=1;" vertex="1" parent="WIyWlLk6GJQsqaUBKTNV-1">
          <mxGeometry x="810" y="390" width="120" height="80" as="geometry" />
        </mxCell>
        <mxCell id="_60zvl8MqvEbd_1B-xa8-133" value="" style="endArrow=none;html=1;rounded=0;entryX=0.5;entryY=1;entryDx=0;entryDy=0;" edge="1" parent="WIyWlLk6GJQsqaUBKTNV-1" target="l0ReFOTLny2DY5NW7kPO-25">
          <mxGeometry width="50" height="50" relative="1" as="geometry">
            <mxPoint x="929.54" y="431" as="sourcePoint" />
            <mxPoint x="1100.54" y="370.88" as="targetPoint" />
          </mxGeometry>
        </mxCell>
      </root>
    </mxGraphModel>
  </diagram>
</mxfile>
